<svg width="0" height="0" class="hidden">
<symbol version="1.0" xmlns="http://www.w3.org/2000/svg" preserveAspectRatio="xMidYMid meet" viewBox="0 0 3630 3630" id="logo">
    <g id="logo">
      <path d="M1075 3513 c-588 -63 -1072 -117 -1074 -119 -7 -6 62 -652 70 -666 5 -7 210 11 698 63 380 40 692 71 695 68 2 -2 -32 -349 -77 -771 -44 -422 -78 -771 -74 -775 4 -4 353 30 774 75 422 44 770 79 772 76 3 -2 -28 -315 -69 -695 -42 -398 -69 -694 -64 -698 10 -9 661 -77 668 -70 6 6 241 2228 235 2233 -2 2 -350 -32 -771 -77 -422 -44 -771 -78 -775 -74 -5 6 138 1418 154 1515 l5 32 -48 -1 c-27 -1 -530 -53 -1119 -116z"></path>
    </g>
  </symbol>
  <symbol xmlns="http://www.w3.org/2000/svg" viewBox="0 0 24 24" id="arrow-right">
    <path d="M14.43 18.8201C14.24 18.8201 14.05 18.7501 13.9 18.6001C13.61 18.3101 13.61 17.8301 13.9 17.5401L19.44 12.0001L13.9 6.46012C13.61 6.17012 13.61 5.69012 13.9 5.40012C14.19 5.11012 14.67 5.11012 14.96 5.40012L21.03 11.4701C21.32 11.7601 21.32 12.2401 21.03 12.5301L14.96 18.6001C14.81 18.7501 14.62 18.8201 14.43 18.8201Z"></path>
    <path d="M20.33 12.75H3.5C3.09 12.75 2.75 12.41 2.75 12C2.75 11.59 3.09 11.25 3.5 11.25H20.33C20.74 11.25 21.08 11.59 21.08 12C21.08 12.41 20.74 12.75 20.33 12.75Z"></path>
  </symbol>
   <symbol xmlns="http://www.w3.org/2000/svg" viewBox="0 0 24 24" id="theme">
    <path d="M12 22C17.5228 22 22 17.5228 22 12C22 6.47715 17.5228 2 12 2C6.47715 2 2 6.47715 2 12C2 17.5228 6.47715 22 12 22ZM12 20.5V3.5C16.6944 3.5 20.5 7.30558 20.5 12C20.5 16.6944 16.6944 20.5 12 20.5Z"></path>
  </symbol>
  <symbol xmlns="http://www.w3.org/2000/svg" viewBox="0 0 24 24" id="data">
    <path d="M12 2C9.38 2 7.25 4.13 7.25 6.75C7.25 9.32 9.26 11.4 11.88 11.49C11.96 11.48 12.04 11.48 12.1 11.49C12.12 11.49 12.13 11.49 12.15 11.49C12.16 11.49 12.16 11.49 12.17 11.49C14.73 11.4 16.74 9.32 16.75 6.75C16.75 4.13 14.62 2 12 2Z"></path>
    <path d="M17.08 14.15C14.29 12.29 9.73996 12.29 6.92996 14.15C5.65996 15 4.95996 16.15 4.95996 17.38C4.95996 18.61 5.65996 19.75 6.91996 20.59C8.31996 21.53 10.16 22 12 22C13.84 22 15.68 21.53 17.08 20.59C18.34 19.74 19.04 18.6 19.04 17.36C19.03 16.13 18.34 14.99 17.08 14.15Z"></path>
  </symbol>
   <symbol xmlns="http://www.w3.org/2000/svg" viewBox="0 0 24 24" id="info">
    <path d="M20.62 8.45C19.57 3.83 15.54 1.75 12 1.75C12 1.75 12 1.75 11.99 1.75C8.45997 1.75 4.41997 3.82 3.36997 8.44C2.19997 13.6 5.35997 17.97 8.21997 20.72C9.27997 21.74 10.64 22.25 12 22.25C13.36 22.25 14.72 21.74 15.77 20.72C18.63 17.97 21.79 13.61 20.62 8.45ZM12 13.46C10.26 13.46 8.84997 12.05 8.84997 10.31C8.84997 8.57 10.26 7.16 12 7.16C13.74 7.16 15.15 8.57 15.15 10.31C15.15 12.05 13.74 13.46 12 13.46Z"></path>
  </symbol>
    <symbol version="1.1" xmlns="http://www.w3.org/2000/svg" xmlns:xlink="http://www.w3.org/1999/xlink" viewBox="0 0 16 16" id="gear">
    <path d="M12 7v-2l-1.2-0.4c-0.1-0.3-0.2-0.7-0.4-1l0.6-1.2-1.5-1.3-1.1 0.5c-0.3-0.2-0.6-0.3-1-0.4l-0.4-1.2h-2l-0.4 1.2c-0.3 0.1-0.7 0.2-1 0.4l-1.1-0.5-1.4 1.4 0.6 1.2c-0.2 0.3-0.3 0.6-0.4 1l-1.3 0.3v2l1.2 0.4c0.1 0.3 0.2 0.7 0.4 1l-0.5 1.1 1.4 1.4 1.2-0.6c0.3 0.2 0.6 0.3 1 0.4l0.3 1.3h2l0.4-1.2c0.3-0.1 0.7-0.2 1-0.4l1.2 0.6 1.4-1.4-0.6-1.2c0.2-0.3 0.3-0.6 0.4-1l1.2-0.4zM3 6c0-1.7 1.3-3 3-3s3 1.3 3 3c0 1.7-1.3 3-3 3s-3-1.3-3-3z"></path>
    <path d="M7.5 6c0 0.828-0.672 1.5-1.5 1.5s-1.5-0.672-1.5-1.5c0-0.828 0.672-1.5 1.5-1.5s1.5 0.672 1.5 1.5z"></path>
    <path d="M16 3v-1h-0.6c0-0.2-0.1-0.4-0.2-0.5l0.4-0.4-0.7-0.7-0.4 0.4c-0.2-0.1-0.3-0.2-0.5-0.2v-0.6h-1v0.6c-0.2 0-0.4 0.1-0.5 0.2l-0.4-0.4-0.7 0.7 0.4 0.4c-0.1 0.2-0.2 0.3-0.2 0.5h-0.6v1h0.6c0 0.2 0.1 0.4 0.2 0.5l-0.4 0.4 0.7 0.7 0.4-0.4c0.2 0.1 0.3 0.2 0.5 0.2v0.6h1v-0.6c0.2 0 0.4-0.1 0.5-0.2l0.4 0.4 0.7-0.7-0.4-0.4c0.1-0.2 0.2-0.3 0.2-0.5h0.6zM13.5 3.5c-0.6 0-1-0.4-1-1s0.4-1 1-1 1 0.4 1 1c0 0.6-0.4 1-1 1z"></path>
    <path d="M15.4 11.8c-0.1-0.3-0.2-0.6-0.4-0.9l0.3-0.6-0.7-0.7-0.5 0.4c-0.3-0.2-0.6-0.3-0.9-0.4l-0.2-0.6h-1l-0.2 0.6c-0.3 0.1-0.6 0.2-0.9 0.4l-0.6-0.3-0.7 0.7 0.3 0.6c-0.2 0.3-0.3 0.6-0.4 0.9l-0.5 0.1v1l0.6 0.2c0.1 0.3 0.2 0.6 0.4 0.9l-0.3 0.6 0.7 0.7 0.6-0.3c0.3 0.2 0.6 0.3 0.9 0.4l0.1 0.5h1l0.2-0.6c0.3-0.1 0.6-0.2 0.9-0.4l0.6 0.3 0.7-0.7-0.4-0.5c0.2-0.3 0.3-0.6 0.4-0.9l0.6-0.2v-1l-0.6-0.2zM12.5 14c-0.8 0-1.5-0.7-1.5-1.5s0.7-1.5 1.5-1.5 1.5 0.7 1.5 1.5-0.7 1.5-1.5 1.5z"></path>
  </symbol>
    <symbol version="1.1" id="budget" xmlns="http://www.w3.org/2000/svg" xmlns:xlink="http://www.w3.org/1999/xlink" x="0px" y="0px" xml:space="preserve" viewBox="0 0 513.32 513.32">
    <g>
      <g>
        <g>
          <path d="M256.66,74.859C111.22,74.859,0,130.469,0,203.189v106.942c0,72.72,111.22,128.33,256.66,128.33
				s256.66-55.61,256.66-128.33V203.189C513.32,130.469,402.1,74.859,256.66,74.859L256.66,74.859z M470.543,310.131
				c0,21.388-23.527,42.777-64.165,59.887v-38.499h-42.777v51.332c-25.666,6.416-53.471,10.694-85.553,12.833v-42.777h-42.777
				v42.777c-32.082-2.139-59.887-6.416-85.553-12.833v-51.332h-42.777v38.499c-40.638-17.11-64.165-38.499-64.165-59.887V275.91
				c44.916,34.221,121.914,55.61,213.883,55.61s168.968-21.388,213.883-55.61v34.221H470.543z M256.661,288.742
				c-121.914,0-213.883-44.916-213.883-85.553s91.97-85.553,213.883-85.553s213.883,44.916,213.883,85.553
				S378.575,288.742,256.661,288.742z"></path>
          <path d="M121.914,181.801l29.944,29.944c19.249-12.833,53.471-29.944,104.803-29.944c49.193,0,85.553,17.11,104.803,29.944
				l29.944-29.944c-21.388-14.972-68.443-42.777-134.746-42.777C188.217,139.024,143.302,164.69,121.914,181.801L121.914,181.801z"></path>
        </g>
      </g>
    </g>
    <g></g>
    <g></g>
    <g></g>
    <g></g>
    <g></g>
    <g></g>
    <g></g>
    <g></g>
    <g></g>
    <g></g>
    <g></g>
    <g></g>
    <g></g>
    <g></g>
    <g></g>
  </symbol>
</svg>