<svg width="0" height="0" class="hidden">
<symbol version="1.0" xmlns="http://www.w3.org/2000/svg" preserveAspectRatio="xMidYMid meet" viewBox="0 0 3630 3630" id="logo">
    <g id="logo">
      <path d="M1075 3513 c-588 -63 -1072 -117 -1074 -119 -7 -6 62 -652 70 -666 5 -7 210 11 698 63 380 40 692 71 695 68 2 -2 -32 -349 -77 -771 -44 -422 -78 -771 -74 -775 4 -4 353 30 774 75 422 44 770 79 772 76 3 -2 -28 -315 -69 -695 -42 -398 -69 -694 -64 -698 10 -9 661 -77 668 -70 6 6 241 2228 235 2233 -2 2 -350 -32 -771 -77 -422 -44 -771 -78 -775 -74 -5 6 138 1418 154 1515 l5 32 -48 -1 c-27 -1 -530 -53 -1119 -116z"></path>
    </g>
  </symbol>
  <symbol xmlns="http://www.w3.org/2000/svg" viewBox="0 0 24 24" id="arrow-right">
    <path d="M14.43 18.8201C14.24 18.8201 14.05 18.7501 13.9 18.6001C13.61 18.3101 13.61 17.8301 13.9 17.5401L19.44 12.0001L13.9 6.46012C13.61 6.17012 13.61 5.69012 13.9 5.40012C14.19 5.11012 14.67 5.11012 14.96 5.40012L21.03 11.4701C21.32 11.7601 21.32 12.2401 21.03 12.5301L14.96 18.6001C14.81 18.7501 14.62 18.8201 14.43 18.8201Z"></path>
    <path d="M20.33 12.75H3.5C3.09 12.75 2.75 12.41 2.75 12C2.75 11.59 3.09 11.25 3.5 11.25H20.33C20.74 11.25 21.08 11.59 21.08 12C21.08 12.41 20.74 12.75 20.33 12.75Z"></path>
  </symbol>
</svg>